<mxfile host="app.diagrams.net" modified="2022-12-06T14:21:56.463Z" agent="5.0 (Windows NT 10.0; Win64; x64) AppleWebKit/537.36 (KHTML, like Gecko) Chrome/107.0.0.0 Safari/537.36 Edg/107.0.1418.62" etag="XEVr4wcpIfIVTDLEKNY9" version="20.4.0" type="github">
  <diagram id="6C6CuzWIiV7Ll8Wyz5mw" name="第 1 页">
    <mxGraphModel dx="1020" dy="869" grid="1" gridSize="10" guides="1" tooltips="1" connect="1" arrows="1" fold="1" page="1" pageScale="1" pageWidth="827" pageHeight="1169" math="0" shadow="0">
      <root>
        <mxCell id="0" />
        <mxCell id="1" parent="0" />
        <mxCell id="VzoX9jP8Q2dm8_JQqqsF-1" value="学生/教职工" style="rounded=0;whiteSpace=wrap;html=1;" parent="1" vertex="1">
          <mxGeometry x="60" y="350" width="90" height="60" as="geometry" />
        </mxCell>
        <mxCell id="zx8cHx1D14mmBlayh4-_-1" style="edgeStyle=orthogonalEdgeStyle;rounded=0;orthogonalLoop=1;jettySize=auto;html=1;exitX=1;exitY=1;exitDx=0;exitDy=0;entryX=-0.022;entryY=0.883;entryDx=0;entryDy=0;entryPerimeter=0;" edge="1" parent="1" source="VzoX9jP8Q2dm8_JQqqsF-2" target="VzoX9jP8Q2dm8_JQqqsF-3">
          <mxGeometry relative="1" as="geometry">
            <Array as="points">
              <mxPoint x="318" y="403" />
            </Array>
          </mxGeometry>
        </mxCell>
        <mxCell id="VzoX9jP8Q2dm8_JQqqsF-2" value="饭卡管理系统" style="ellipse;whiteSpace=wrap;html=1;aspect=fixed;" parent="1" vertex="1">
          <mxGeometry x="250" y="340" width="80" height="80" as="geometry" />
        </mxCell>
        <mxCell id="zx8cHx1D14mmBlayh4-_-3" style="edgeStyle=orthogonalEdgeStyle;rounded=0;orthogonalLoop=1;jettySize=auto;html=1;exitX=0;exitY=0.25;exitDx=0;exitDy=0;entryX=1;entryY=0.313;entryDx=0;entryDy=0;entryPerimeter=0;" edge="1" parent="1" source="VzoX9jP8Q2dm8_JQqqsF-3" target="VzoX9jP8Q2dm8_JQqqsF-2">
          <mxGeometry relative="1" as="geometry" />
        </mxCell>
        <mxCell id="VzoX9jP8Q2dm8_JQqqsF-3" value="管理员" style="rounded=0;whiteSpace=wrap;html=1;" parent="1" vertex="1">
          <mxGeometry x="460" y="350" width="90" height="60" as="geometry" />
        </mxCell>
        <mxCell id="VzoX9jP8Q2dm8_JQqqsF-5" value="" style="endArrow=classic;html=1;rounded=0;entryX=0.063;entryY=0.25;entryDx=0;entryDy=0;entryPerimeter=0;" parent="1" target="VzoX9jP8Q2dm8_JQqqsF-2" edge="1">
          <mxGeometry width="50" height="50" relative="1" as="geometry">
            <mxPoint x="150" y="360" as="sourcePoint" />
            <mxPoint x="220" y="400" as="targetPoint" />
          </mxGeometry>
        </mxCell>
        <mxCell id="VzoX9jP8Q2dm8_JQqqsF-6" value="" style="endArrow=classic;html=1;rounded=0;entryX=1.022;entryY=0.867;entryDx=0;entryDy=0;entryPerimeter=0;" parent="1" target="VzoX9jP8Q2dm8_JQqqsF-1" edge="1">
          <mxGeometry width="50" height="50" relative="1" as="geometry">
            <mxPoint x="254" y="402" as="sourcePoint" />
            <mxPoint x="151" y="470" as="targetPoint" />
          </mxGeometry>
        </mxCell>
        <mxCell id="VzoX9jP8Q2dm8_JQqqsF-8" value="事务" style="text;html=1;strokeColor=none;fillColor=none;align=center;verticalAlign=middle;whiteSpace=wrap;rounded=0;" parent="1" vertex="1">
          <mxGeometry x="170" y="320" width="60" height="30" as="geometry" />
        </mxCell>
        <mxCell id="VzoX9jP8Q2dm8_JQqqsF-9" value="处理事务" style="text;html=1;strokeColor=none;fillColor=none;align=center;verticalAlign=middle;whiteSpace=wrap;rounded=0;" parent="1" vertex="1">
          <mxGeometry x="170" y="410" width="60" height="30" as="geometry" />
        </mxCell>
        <mxCell id="VzoX9jP8Q2dm8_JQqqsF-10" value="处理事务" style="text;html=1;strokeColor=none;fillColor=none;align=center;verticalAlign=middle;whiteSpace=wrap;rounded=0;" parent="1" vertex="1">
          <mxGeometry x="360" y="330" width="60" height="30" as="geometry" />
        </mxCell>
        <mxCell id="zx8cHx1D14mmBlayh4-_-4" value="事务" style="text;html=1;strokeColor=none;fillColor=none;align=center;verticalAlign=middle;whiteSpace=wrap;rounded=0;" vertex="1" parent="1">
          <mxGeometry x="360" y="410" width="60" height="30" as="geometry" />
        </mxCell>
      </root>
    </mxGraphModel>
  </diagram>
</mxfile>
